#!OML:ASF F:\VICON\USERDATA\INSTALL\rory3\rory3.ASF
:FULLY-SPECIFIED
:DEGREES
580
root 0.952232 17.4437 41.8689 11.6443 -33.609 -2.4925
lowerback -9.96268 3.62027 1.97809
upperback -5.50055 4.57322 -0.335102
thorax 0.0361965 2.21742 -0.999981
lowerneck -13.9932 -4.47815 -4.90351
upperneck 37.7838 -7.8919 5.26343
head 16.2997 -3.44657 1.71314
rclavicle -1.95057e-014 -7.15625e-015
rhumerus -41.5785 -22.6594 -67.8482
rradius 16.1824
rwrist 6.84992
rhand 0.294644 10.5199
rfingers 7.12502
rthumb 25.8726 -17.74
lclavicle -1.95057e-014 -7.15625e-015
lhumerus -47.2493 29.5428 53.03
lradius 32.4096
lwrist 4.26704
lhand -5.12989 18.4746
lfingers 7.12502
lthumb 20.6686 47.3941
rfemur 5.11935 23.7089 19.4716
rtibia 14.6058
rfoot -2.65547 -14.916
rtoes -1.04856
lfemur -24.9891 -8.56365 -14.4048
ltibia 26.3283
lfoot -15.9279 21.9932
ltoes -8.20985
581
root 0.958496 17.4517 41.9619 11.7204 -34.2544 -1.76972
lowerback -10.6752 3.47251 1.43632
upperback -5.58999 4.40483 -0.443695
thorax 0.294072 2.14076 -0.788128
lowerneck -13.8539 -4.58938 -5.35416
upperneck 37.5832 -8.03087 5.53145
head 16.2152 -3.54272 1.8828
rclavicle -8.72168e-014 -2.00773e-014
rhumerus -41.6927 -22.1925 -67.8197
rradius 16.2566
rwrist 7.35144
rhand 0.391642 10.2501
rfingers 7.12502
rthumb 25.9654 -17.9962
lclavicle -8.72168e-014 -2.00773e-014
lhumerus -47.3215 29.2724 53.213
lradius 32.7132
lwrist 4.71379
lhand -5.28216 18.3979
lfingers 7.12502
lthumb 20.5223 47.3332
rfemur 4.59559 22.8404 18.2461
rtibia 14.8589
rfoot -2.67299 -15.0826
rtoes -0.608783
lfemur -24.8472 -8.28393 -15.4153
ltibia 26.0109
lfoot -16.1474 22.1105
ltoes -7.59259
582
root 0.967371 17.4646 42.0033 12.0714 -34.8128 -1.08844
lowerback -11.1374 3.31881 0.690506
upperback -5.80808 4.25994 -0.587532
thorax 0.271719 2.07713 -0.518924
lowerneck -13.8668 -4.81706 -5.83001
upperneck 37.4572 -8.4114 5.96756
head 16.2443 -3.71574 2.08317
rclavicle -9.08073e-014 -1.73937e-014
rhumerus -41.632 -21.391 -68.3532
rradius 16.5568
rwrist 6.77841
rhand 0.508818 10.1146
rfingers 7.12502
rthumb 26.0776 -18.1152
lclavicle -9.08073e-014 -1.73937e-014
lhumerus -47.1528 29.3286 53.237
lradius 33.0938
lwrist 4.47455
lhand -5.04 18.8888
lfingers 7.12502
lthumb 20.755 47.7988
rfemur 4.00141 22.4169 17.1425
rtibia 14.2704
rfoot -2.04607 -15.855
rtoes -0.883544
lfemur -25.3771 -7.8788 -16.1543
ltibia 25.8666
lfoot -16.2295 21.8403
ltoes -5.58
583
root 0.97823 17.4673 42.0845 12.4571 -35.5147 -1.6407
lowerback -11.3358 3.47233 1.44102
upperback -5.71562 4.38745 -0.645324
thorax 0.536323 2.12635 -0.964736
lowerneck -13.8913 -5.06505 -5.98582
upperneck 37.2596 -8.86011 6.27339
head 16.2217 -3.88818 2.15518
rclavicle -3.68994e-015 5.1684e-015
rhumerus -41.6376 -20.9753 -68.9381
rradius 16.9699
rwrist 6.068
rhand 0.349051 10.2479
rfingers 7.12502
rthumb 25.9247 -18.0044
lclavicle -3.68994e-015 5.1684e-015
lhumerus -46.4855 28.998 53.584
lradius 33.4862
lwrist 4.45669
lhand -4.94712 19.6519
lfingers 7.12502
lthumb 20.8442 48.5522
rfemur 3.73922 22.2299 17.3267
rtibia 14.7534
rfoot -2.47599 -16.4581
rtoes -0.347061
lfemur -24.8625 -7.58207 -15.9649
ltibia 25.5221
lfoot -16.3116 22.0366
ltoes -4.85074
584
root 1.00197 17.459 42.1818 11.9437 -35.2461 -1.36402
lowerback -11.059 3.12187 1.69705
upperback -5.66414 3.90642 -0.717374
thorax 0.448024 1.88052 -1.25239
lowerneck -13.4744 -5.18968 -6.23644
upperneck 37.0014 -9.0409 6.41058
head 16.0298 -4.00031 2.22889
rclavicle -3.06501e-014 -2.00773e-014
rhumerus -41.8048 -20.1009 -69.3431
rradius 17.2875
rwrist 5.38555
rhand 0.212519 10.2318
rfingers 7.12502
rthumb 25.7939 -18.0396
lclavicle -3.06501e-014 -2.00773e-014
lhumerus -46.5832 28.876 53.5566
lradius 33.7925
lwrist 4.48408
lhand -5.00704 19.5531
lfingers 7.12502
lthumb 20.7867 48.4597
rfemur 4.36689 20.0501 16.831
rtibia 15.0141
rfoot -3.06958 -16.087
rtoes -0.446788
lfemur -23.974 -8.01688 -16.7029
ltibia 25.278
lfoot -16.4464 22.0637
ltoes -5.0627
585
root 0.99647 17.4778 42.1683 11.5981 -37.3687 -0.148186
lowerback -10.6491 3.20524 -0.221661
upperback -5.92654 4.1918 -0.807028
thorax -0.165222 2.05687 -0.279147
lowerneck -14.9131 -5.35575 -5.98109
upperneck 37.5013 -9.26919 6.13902
head 16.6314 -4.05355 1.99176
rclavicle 9.04843e-014 6.36111e-015
rhumerus -41.7228 -19.2012 -69.7859
rradius 17.5283
rwrist 4.75896
rhand 0.026784 10.2222
rfingers 7.12502
rthumb 25.616 -18.0749
lclavicle 9.04843e-014 6.36111e-015
lhumerus -46.6705 28.9997 53.3992
lradius 33.8405
lwrist 4.5938
lhand -5.01664 18.2435
lfingers 7.12502
lthumb 20.7774 47.1511
rfemur 3.27845 22.2368 15.5194
rtibia 15.1925
rfoot -2.73619 -18.1027
rtoes 0.428361
lfemur -24.1084 -7.12184 -17.7034
ltibia 25.0026
lfoot -17.1178 22.511
ltoes -2.74106
586
root 1.00187 17.4764 42.2542 11.5443 -37.8693 -0.122101
lowerback -10.911 3.07101 0.018954
upperback -5.77712 3.99402 -0.87677
thorax 0.153113 1.95106 -0.484992
lowerneck -15.6645 -5.43838 -5.72422
upperneck 37.6873 -9.45833 6.07281
head 16.9153 -4.08375 1.86169
rclavicle -7.76378e-014 -3.37934e-014
rhumerus -41.554 -18.7062 -70.2381
rradius 17.8258
rwrist 4.11321
rhand -0.27602 10.2095
rfingers 7.12502
rthumb 25.326 -18.1289
lclavicle -7.76378e-014 -3.37934e-014
lhumerus -46.3456 28.6042 53.6691
lradius 34.1388
lwrist 5.18953
lhand -5.34541 18.4513
lfingers 7.12502
lthumb 20.4615 47.3932
rfemur 3.26591 21.4409 15.2358
rtibia 15.6445
rfoot -2.95583 -18.6161
rtoes -0.0155307
lfemur -23.4994 -6.85933 -18.1217
ltibia 24.7486
lfoot -17.0304 22.6679
ltoes -3.73195
587
root 1.01397 17.4799 42.3106 11.6169 -38.6764 -0.0683978
lowerback -10.7497 2.92473 -0.0771603
upperback -5.94777 3.80164 -0.788253
thorax -0.126133 1.85605 -0.375702
lowerneck -14.4525 -5.40325 -6.21275
upperneck 37.0171 -9.42 6.5026
head 16.3209 -4.12911 2.16369
rclavicle 2.42269e-015 -2.98177e-015
rhumerus -41.5969 -17.7353 -70.6606
rradius 18.2566
rwrist 3.33076
rhand -0.685794 10.131
rfingers 7.12502
rthumb 24.9333 -18.2625
lclavicle 2.42269e-015 -2.98177e-015
lhumerus -46.7185 28.368 53.6327
lradius 34.6202
lwrist 5.59347
lhand -5.25651 19.8149
lfingers 7.12502
lthumb 20.5469 48.7475
rfemur 2.75622 21.2164 14.8859
rtibia 16.2294
rfoot -3.06953 -19.4345
rtoes -0.0979454
lfemur -23.1523 -6.44021 -18.4473
ltibia 24.4128
lfoot -16.9761 23.1169
ltoes -4.22906
588
root 1.02208 17.4817 42.337 11.7832 -39.8734 -0.271739
lowerback -10.1929 2.94708 -0.244969
upperback -6.21105 3.83664 -0.613563
thorax -0.725657 1.87904 -0.138208
lowerneck -14.3503 -5.46103 -6.26298
upperneck 37.2157 -9.44359 6.24689
head 16.3849 -4.18985 2.05926
rclavicle 1.15419e-014 5.96354e-016
rhumerus -41.8675 -17.1518 -70.7588
rradius 18.7619
rwrist 2.79541
rhand -1.01955 10.3977
rfingers 7.12502
rthumb 24.6135 -18.0398
lclavicle 1.15419e-014 5.96354e-016
lhumerus -47.1374 28.1913 53.5829
lradius 34.8867
lwrist 5.61366
lhand -5.3833 20.1885
lfingers 7.12502
lthumb 20.4251 49.1342
rfemur 2.53483 21.6373 14.8196
rtibia 15.974
rfoot -2.73584 -20.3704
rtoes -1.28975
lfemur -22.9836 -5.93327 -18.3848
ltibia 24.3333
lfoot -17.7088 23.4414
ltoes -2.21401
589
root 1.02246 17.4751 42.439 11.6619 -40.4008 0.0960239
lowerback -10.6532 2.78459 -0.276861
upperback -6.22398 3.61992 -0.648787
thorax -0.489216 1.76801 -0.153827
lowerneck -15.6106 -5.52344 -5.94555
upperneck 37.7763 -9.55782 5.98647
head 16.9669 -4.1888 1.83848
rclavicle 7.42212e-014 1.72943e-014
rhumerus -42.0223 -16.5338 -70.9077
rradius 19.2121
rwrist 1.90127
rhand -1.35136 10.6901
rfingers 7.12502
rthumb 24.2954 -17.7903
lclavicle 7.42212e-014 1.72943e-014
lhumerus -47.4902 28.0224 53.629
lradius 35.2368
lwrist 5.60844
lhand -5.67322 19.8686
lfingers 7.12502
lthumb 20.1465 48.844
rfemur 2.60593 20.2229 14.0259
rtibia 16.0323
rfoot -3.27925 -20.0636
rtoes -0.620612
lfemur -22.5245 -6.0753 -19.0904
ltibia 24.2524
lfoot -18.3792 23.7773
ltoes -1.83292
590
root 1.02684 17.4723 42.5237 11.389 -41.2833 0.787266
lowerback -11.1239 2.67458 -0.59451
upperback -6.1801 3.50228 -0.811009
thorax -0.197806 1.71135 -0.13129
lowerneck -15.1215 -5.51417 -6.0113
upperneck 37.5723 -9.54588 5.99547
head 16.7378 -4.21545 1.86502
rclavicle 4.70685e-014 1.73937e-014
rhumerus -41.9176 -15.713 -71.4685
rradius 19.7831
rwrist 0.717714
rhand -1.74402 10.7901
rfingers 7.12502
rthumb 23.9189 -17.7402
lclavicle 4.70685e-014 1.73937e-014
lhumerus -47.5812 28.1219 53.4639
lradius 35.7485
lwrist 5.80416
lhand -5.30781 20.8675
lfingers 7.12502
lthumb 20.4976 49.8054
rfemur 2.48753 19.4005 12.9373
rtibia 15.9586
rfoot -3.27099 -20.1268
rtoes 1.15821
lfemur -22.2037 -5.83149 -20.0569
ltibia 24.1384
lfoot -18.9788 24.0325
ltoes -1.27055
